<svg width="96" height="96" xmlns="http://www.w3.org/2000/svg" xmlns:xlink="http://www.w3.org/1999/xlink" xml:space="preserve" overflow="hidden"><g transform="translate(-706 -67)"><path d="M754 137C748.981 137.004 744.114 135.282 740.214 132.123 739.456 132.365 738.7 132.606 737.959 132.833 747.797 141.7 762.961 140.912 771.828 131.074 775.46 127.044 777.618 121.901 777.95 116.485 777.259 116.842 776.559 117.199 775.85 117.558 774.54 128.637 765.156 136.987 754 137Z"/><path d="M797.885 97.523C796.138 93.295 783.039 96.272 772.339 99.523 763.789 89.3946 748.647 88.1154 738.518 96.6656 733.118 101.225 730.001 107.932 730 115 730 115.673 730.038 116.337 730.093 117 720.287 122.22 708.986 129.323 710.726 133.536 710.984 134.159 711.588 135.625 716.066 135.625 719.589 135.507 723.088 135.013 726.506 134.152 737.172 131.543 747.609 128.076 757.717 123.786 767.905 119.691 777.746 114.78 787.143 109.1 799.461 101.339 798.275 98.467 797.885 97.523ZM752.485 93.051C762.388 92.3815 771.513 98.4225 774.765 107.8 769.811 110.439 763.274 113.606 754.934 117.052 746.507 120.534 739.584 122.919 734.189 124.552 728.908 113.621 733.488 100.478 744.419 95.1963 746.948 93.9746 749.687 93.2487 752.489 93.058ZM776.552 106.833C776.452 106.547 776.352 106.256 776.243 105.976 777.447 105.627 778.614 105.305 779.743 105.008 779.781 104.998 779.785 105.008 779.751 105.026 778.784 105.588 777.717 106.19 776.552 106.833ZM732.247 125.119C731.031 125.469 729.905 125.779 728.869 126.05 728.831 126.06 728.828 126.05 728.862 126.032 729.827 125.47 730.841 124.898 731.893 124.319 732.007 124.588 732.124 124.855 732.247 125.119ZM786.077 107.405C776.776 113.025 767.036 117.885 756.953 121.937 746.951 126.184 736.621 129.616 726.066 132.2 716.135 134.438 712.897 133.552 712.575 132.771 712.036 131.471 716.422 126.628 730.361 119.122 730.556 120.24 730.831 121.343 731.183 122.422L731.122 122.457C728.022 124.157 725.251 125.808 722.898 127.357 722.4 127.677 722.255 128.34 722.575 128.838 722.774 129.148 723.117 129.334 723.485 129.331 723.558 129.331 723.631 129.324 723.702 129.309 728.681 128.299 739.457 125.601 755.702 118.89 771.947 112.179 781.48 106.49 785.721 103.69 786.219 103.368 786.361 102.704 786.039 102.206 785.797 101.832 785.349 101.646 784.913 101.74 782.156 102.3 779.041 103.081 775.706 104.05L775.396 104.122C774.883 103.115 774.299 102.146 773.649 101.222 788.921 96.656 795.5 96.975 796.041 98.285 796.359 99.068 794.693 101.979 786.077 107.405Z"/></g></svg>